<?xml version="1.0" encoding="UTF-8" standalone="no"?>
<svg width="42px" height="38px" viewBox="0 0 42 38" version="1.1" xmlns="http://www.w3.org/2000/svg" xmlns:xlink="http://www.w3.org/1999/xlink">
    <!-- Generator: Sketch 3.7.2 (28276) - http://www.bohemiancoding.com/sketch -->
    <title>Page 1</title>
    <desc>Created with Sketch.</desc>
    <defs></defs>
    <g id="Page-1" stroke="none" stroke-width="1" fill="none" fill-rule="evenodd">
        <g id="Updated-Mobile-Landing-SPEC" transform="translate(-139.000000, -901.000000)" fill="#221F20">
            <g id="Page-1" transform="translate(139.000000, 901.000000)">
                <path d="M36.5717752,31.6671637 C37.2950441,31.6680341 37.8760924,31.0607965 37.8679821,30.3111062 C37.860451,29.5715703 37.2785338,28.9718761 36.5717752,28.9756477 C35.8569062,28.9791293 35.281651,29.573021 35.2775959,30.3111062 C35.273251,31.0654386 35.8458993,31.6665835 36.5717752,31.6671637" id="Fill-1"></path>
                <g id="Group-5" transform="translate(0.000000, 0.279393)">
                    <path d="M39.6374855,23.5357797 L39.147389,23.5357797 L39.147389,22.0062257 L36.0984786,22.0062257 L36.0984786,13.52811 L39.6374855,13.52811 L39.6374855,23.5357797 Z M39.63372,34.443426 L39.3776648,34.443426 C37.6571131,34.443426 35.938589,34.4399445 34.2191959,34.4483582 C34.0387407,34.4483582 33.9434441,34.3903326 33.8565476,34.22554 C33.1961338,32.9724779 32.5244234,31.7260887 31.8503959,30.4660635 C31.9743683,30.3534939 32.0977614,30.2464367 32.21652,30.1338671 C33.0956234,29.2922062 33.4536372,27.7556892 33.0217614,26.6851174 C32.8077062,26.1559243 32.5481752,25.8869757 31.8642993,25.501686 L39.63372,25.501686 L39.63372,34.443426 Z M29.7978993,34.4338518 L29.7978993,31.118561 C30.1011683,31.0257201 30.1388234,31.0405166 30.2879959,31.3184591 C30.8070579,32.2831341 31.3258303,33.2466487 31.8437338,34.2113238 C31.8764648,34.273121 31.9045614,34.3363689 31.9514855,34.4338518 L29.7978993,34.4338518 Z M29.7764648,23.538681 L26.5201614,23.538681 C26.7075683,23.2700226 26.9181476,23.0213831 27.0707959,22.7385084 C27.8676372,21.2678504 27.5252648,19.4493291 26.2481752,18.3683127 C25.789651,17.9804118 25.3015821,17.631388 24.8358166,17.254512 C24.6287131,17.0856576 24.4271131,16.9037474 24.2489752,16.7029789 C23.9497614,16.3643998 23.899651,15.954159 24.0155131,15.5238994 C24.128189,15.1072758 24.4911269,14.8362964 24.9270579,14.8258518 C25.3939821,14.814827 25.8354166,14.9381313 26.2597614,15.1296157 C26.4807683,15.2282591 26.6971407,15.3385077 26.9636234,15.4667442 L26.9636234,13.5301409 L27.5432234,13.5301409 L27.5432234,15.2099811 L29.7764648,15.2099811 L29.7764648,23.538681 Z M28.0428786,34.4225368 L27.1701476,34.4225368 L27.1701476,33.0577755 L24.1055959,33.0577755 L24.1055959,30.7883955 L26.7915683,30.7883955 L26.7915683,29.1456917 L24.1032786,29.1456917 L24.1032786,26.9703131 L27.0855683,26.9703131 L27.0855683,25.5013958 L28.0428786,25.5013958 L28.0428786,34.4225368 Z M22.128989,21.3548887 L22.128989,23.5366501 L21.9042166,23.5366501 L21.9042166,13.5336224 L23.2661752,13.5336224 C23.1248234,13.6812975 22.9921614,13.8025709 22.8806441,13.9415422 C21.9673614,15.0765223 21.8260097,17.2820741 23.3745062,18.6239154 C23.7800234,18.9755503 24.2269614,19.274382 24.6429062,19.6120908 C24.8998303,19.8204026 25.1570441,20.0353873 25.3751545,20.2840269 C25.6850855,20.6374026 25.79892,21.0673721 25.6850855,21.5449225 C25.56372,22.0572882 25.1883269,22.3726572 24.6759269,22.3848426 C24.0314441,22.3999292 23.4614028,22.1478081 22.9113476,21.8338898 C22.6599269,21.6911469 22.4169062,21.5321569 22.128989,21.3548887 L22.128989,21.3548887 Z M21.9068234,34.4219566 L22.3508648,34.4219566 L22.3508648,25.4929821 L21.9068234,25.4929821 L21.9068234,34.4219566 Z M21.9042166,11.4708135 L21.9042166,2.14291325 L22.2477476,2.14291325 L22.2477476,2.24677901 L22.2477476,11.4708135 L22.2477476,11.5743891 L21.9042166,11.5743891 L21.9042166,11.4708135 Z M23.9978441,3.78764798 L26.9783959,3.78764798 L26.9783959,2.24677901 L29.7396786,2.24677901 C29.5974579,2.79279961 29.460451,3.32721509 29.3211269,3.86134045 C28.67172,6.36195231 28.0217338,8.86198391 27.3714579,11.363176 C27.3633476,11.3939296 27.3149752,11.5755496 27.2900648,11.5755496 L27.0525476,11.5755496 C27.0525476,11.5755496 27.0479131,10.1254907 27.0438579,10.0207545 L24.0039269,10.0207545 L24.0039269,7.68725629 L26.6684648,7.68725629 L26.6684648,6.02772504 L23.9978441,6.02772504 L23.9978441,3.78764798 Z M30.4962579,5.96650806 C30.5092924,5.96476729 30.5229062,5.9627364 30.537389,5.9607055 C30.7302993,6.68254357 30.9240786,7.40380138 31.1233614,8.14768917 L29.9279545,8.14768917 C30.1188372,7.41685714 30.3071131,6.69182766 30.4962579,5.96650806 L30.4962579,5.96650806 Z M33.8739269,2.23981594 L33.8739269,11.5755496 C33.8542303,11.5796114 33.8345338,11.560463 33.8145476,11.5645248 C33.0046717,8.46392852 32.1950855,5.36304215 31.3799959,2.23981594 L33.8739269,2.23981594 Z M31.570589,15.2204257 L33.79572,15.2204257 L33.79572,13.5301409 L34.298851,13.5301409 L34.298851,23.5421625 L31.570589,23.5421625 L31.570589,15.2204257 Z M31.5364097,27.9375993 C31.5103407,28.5506395 31.2470441,29.0334122 30.7560786,29.3760532 C30.7013338,29.4137698 30.62892,29.4398813 30.5634579,29.4422023 C30.3155131,29.4497456 30.066989,29.4453937 29.7990579,29.4453937 L29.7990579,26.9082257 C30.2184786,26.9682822 30.6274717,26.9964246 31.0211131,27.0933273 C31.3799959,27.1809459 31.5552372,27.5021174 31.5364097,27.9375993 L31.5364097,27.9375993 Z M29.0358166,11.5755496 C29.1539959,11.1139562 29.4937614,9.83072077 29.4937614,9.83072077 L31.552051,9.82723924 C31.70412,10.4112666 31.8527131,10.9816579 32.007389,11.5755496 L29.0358166,11.5755496 Z M35.6170717,3.76733903 C36.0669062,3.75370302 36.4993614,3.75051161 36.9109614,3.92081665 C37.1904786,4.03599741 37.3277752,4.28318633 37.3492097,4.582018 C37.4016372,5.2916707 37.1279131,5.8501668 36.5749614,6.26272859 C36.5280372,6.29812418 36.4622855,6.32162454 36.4046441,6.32307518 C36.1503269,6.32974812 35.8954303,6.32626658 35.6170717,6.32626658 L35.6170717,3.76733903 Z M37.843651,11.5645248 L35.6251821,11.5645248 L35.6251821,8.02670586 C35.8458993,7.9614271 35.9921752,7.99653256 36.11412,8.23646829 C36.6395545,9.2713543 37.1878717,10.2943451 37.72692,11.322268 C37.7625476,11.3921888 37.7952786,11.4644306 37.843651,11.5645248 L37.843651,11.5645248 Z M39.6311131,2.24532837 L39.6311131,11.0266277 C39.6198166,11.0306895 39.6311131,11.0916164 39.6198166,11.0956782 C38.9840234,9.87743136 38.3265062,8.60289975 37.6794166,7.36260323 C37.7431407,7.30718881 37.8083131,7.25438555 37.8691407,7.19752049 C38.8047269,6.31466147 39.1940234,5.21797823 38.9811269,3.92806985 C38.8594717,3.18534258 38.441789,2.63409968 37.7567545,2.32975558 C37.7248924,2.31524918 37.6953476,2.29494023 37.6058441,2.24532837 L39.6311131,2.24532837 Z M20.17932,25.5504275 C20.1764234,25.7639615 20.1471683,26.0738181 20.0156648,26.1701405 C19.1548097,26.8104527 18.2675959,27.4040542 17.3421476,28.0440762 C17.3421476,27.8511412 17.3337476,27.737121 17.3421476,27.6289033 C17.6428097,24.3812123 17.9466579,21.1303298 18.2444234,17.8826387 C18.7200372,12.661208 19.1927545,7.43745621 19.6596786,2.21631559 C19.6918303,1.84495195 19.8436097,1.87715614 20.1822166,1.87715614 C20.1822166,1.99407766 20.17932,6.30885891 20.1851131,8.34062418 C20.1880097,11.606013 20.1851131,14.8714019 20.1851131,18.139692 C20.1851131,20.6098404 20.1909062,23.080279 20.17932,25.5504275 L20.17932,25.5504275 Z M20.1237062,34.8203021 L12.065789,34.8203021 C14.8120097,32.920545 17.4475821,31.0933199 20.1237062,29.2396931 L20.1237062,34.8203021 Z M10.9511959,32.3652403 C10.8654579,32.3652403 10.2873062,32.0301426 10.2873062,32.0301426 C9.50407862,31.52474 8.73417517,30.9949665 7.98570621,30.4341494 C7.8371131,30.3233206 7.7079269,30.0323223 7.73167862,29.8469306 C8.41063034,24.64842 10.9103545,6.43883619 10.9511959,6.2232712 C10.9923269,6.43883619 13.492051,24.64842 14.1707131,29.8469306 C14.1944648,30.0323223 14.0646993,30.3233206 13.9166855,30.4341494 C13.1685062,30.9949665 12.3991821,31.52474 11.6153752,32.0301426 C11.6153752,32.0301426 11.0369338,32.3652403 10.9511959,32.3652403 L10.9511959,32.3652403 Z M1.78042345,34.8203021 L1.78042345,29.2396931 C4.45394069,31.0933199 7.09240966,32.920545 9.83573379,34.8203021 L1.78042345,34.8203021 Z M1.71901655,18.139692 C1.71901655,14.8714019 1.71322345,11.606013 1.71901655,8.34062418 C1.72220276,6.30885891 1.71640966,1.99407766 1.71640966,1.87715614 C2.0547269,1.87715614 2.21229931,1.84495195 2.24445103,2.21631559 C2.70847862,7.43745621 3.18409241,12.661208 3.65999586,17.8826387 C3.95747172,21.1303298 4.26132,24.3812123 4.55879586,27.6289033 C4.57067172,27.737121 4.56198207,27.8511412 4.56198207,28.0440762 C3.63653379,27.4040542 2.74642345,26.8104527 1.88556828,26.1701405 C1.75406483,26.0738181 1.72480966,25.7639615 1.72480966,25.5504275 C1.71322345,23.080279 1.71901655,20.6098404 1.71901655,18.139692 L1.71901655,18.139692 Z M9.33955448,1.87715614 C8.46682345,8.45174315 7.60017517,14.9999285 6.73034069,21.5481139 C6.70687862,21.5481139 6.68080966,21.5455027 6.65734759,21.5455027 C6.08527862,15.0031199 5.51320966,8.46073711 4.94114069,1.87715614 L9.33955448,1.87715614 Z M16.962989,1.87715614 C16.3880234,8.46073711 15.818851,15.0031199 15.2467821,21.5455027 C15.22332,21.5455027 15.197251,21.5481139 15.1708924,21.5481139 C14.3042441,14.9999285 13.4344097,8.45174315 12.5645752,1.87715614 L16.962989,1.87715614 Z M41.4872234,0.0107637429 L0.813264828,0.0107637429 L0.474657931,0.0107637429 L0.474657931,0.0119242543 L-8.68965508e-05,0.0119242543 L-8.68965508e-05,36.8462648 L21.9042166,36.8462648 L21.9042166,36.8451043 L41.7899131,36.8451043 L41.7899131,0.0183070668 C41.6891131,0.015986044 41.5880234,0.0107637429 41.4872234,0.0107637429 L41.4872234,0.0107637429 Z" id="Fill-3"></path>
                </g>
                <path d="M22.2955669,11.8538983 L21.7955669,11.8538983" id="Fill-6"></path>
            </g>
        </g>
    </g>
</svg>